REM DIRINDEX 1\2,1\3,1\4
REM DIRNAME cjc151,folder01,folder02,folder03
TITLE ""
FILE "031 031_Lesson 7_TOEFL_3900.mp3" MP3
  TRACK 01 AUDIO
    TITLE "4:cjc151_1328"
    INDEX 01 00:00:00
  TRACK 02 AUDIO
    TITLE "0:"
    INDEX 01 00:01:52
  TRACK 03 AUDIO
    TITLE "2:cjc151_1329"
    INDEX 01 00:02:32
  TRACK 04 AUDIO
    TITLE "0:"
    INDEX 01 00:03:35
  TRACK 05 AUDIO
    TITLE "3:cjc151_1330"
    INDEX 01 00:05:14
  TRACK 06 AUDIO
    TITLE "0:"
    INDEX 01 00:08:26
  TRACK 07 AUDIO
    TITLE "2:cjc151_1331"
    INDEX 01 00:10:06
  TRACK 08 AUDIO
    TITLE "0:"
    INDEX 01 00:11:07
  TRACK 09 AUDIO
    TITLE "3:cjc151_1332"
    INDEX 01 00:12:60
  TRACK 10 AUDIO
    TITLE "0:"
    INDEX 01 00:16:51
  TRACK 11 AUDIO
    TITLE "2:cjc151_1333"
    INDEX 01 00:18:33
  TRACK 12 AUDIO
    TITLE "0:"
    INDEX 01 00:19:48
  TRACK 13 AUDIO
    TITLE "3:cjc151_1334"
    INDEX 01 00:21:27
  TRACK 14 AUDIO
    TITLE "0:"
    INDEX 01 00:25:17
  TRACK 15 AUDIO
    TITLE "2:cjc151_1335"
    INDEX 01 00:26:69
  TRACK 16 AUDIO
    TITLE "0:"
    INDEX 01 00:28:13
  TRACK 17 AUDIO
    TITLE "3:cjc151_1336"
    INDEX 01 00:29:68
  TRACK 18 AUDIO
    TITLE "0:"
    INDEX 01 00:33:22
  TRACK 19 AUDIO
    TITLE "2:cjc151_1337"
    INDEX 01 00:35:04
  TRACK 20 AUDIO
    TITLE "0:"
    INDEX 01 00:36:07
  TRACK 21 AUDIO
    TITLE "3:cjc151_1338"
    INDEX 01 00:37:65
  TRACK 22 AUDIO
    TITLE "0:"
    INDEX 01 00:41:71
  TRACK 23 AUDIO
    TITLE "2:cjc151_1339"
    INDEX 01 00:43:50
  TRACK 24 AUDIO
    TITLE "0:"
    INDEX 01 00:44:67
  TRACK 25 AUDIO
    TITLE "3:cjc151_1340"
    INDEX 01 00:46:45
  TRACK 26 AUDIO
    TITLE "0:"
    INDEX 01 00:52:14
  TRACK 27 AUDIO
    TITLE "2:cjc151_1341"
    INDEX 01 00:53:68
  TRACK 28 AUDIO
    TITLE "0:"
    INDEX 01 00:55:03
  TRACK 29 AUDIO
    TITLE "3:cjc151_1342"
    INDEX 01 00:56:57
  TRACK 30 AUDIO
    TITLE "0:"
    INDEX 01 01:00:39
  TRACK 31 AUDIO
    TITLE "2:cjc151_1343"
    INDEX 01 01:02:18
  TRACK 32 AUDIO
    TITLE "0:"
    INDEX 01 01:03:12
  TRACK 33 AUDIO
    TITLE "3:cjc151_1344"
    INDEX 01 01:04:64
  TRACK 34 AUDIO
    TITLE "0:"
    INDEX 01 01:08:19
  TRACK 35 AUDIO
    TITLE "2:cjc151_1345"
    INDEX 01 01:10:04
  TRACK 36 AUDIO
    TITLE "0:"
    INDEX 01 01:11:05
  TRACK 37 AUDIO
    TITLE "3:cjc151_1346"
    INDEX 01 01:12:58
  TRACK 38 AUDIO
    TITLE "0:"
    INDEX 01 01:16:38
  TRACK 39 AUDIO
    TITLE "2:cjc151_1347"
    INDEX 01 01:18:17
  TRACK 40 AUDIO
    TITLE "0:"
    INDEX 01 01:19:23
  TRACK 41 AUDIO
    TITLE "3:cjc151_1348"
    INDEX 01 01:21:04
  TRACK 42 AUDIO
    TITLE "0:"
    INDEX 01 01:25:29
  TRACK 43 AUDIO
    TITLE "2:cjc151_1349"
    INDEX 01 01:27:10
  TRACK 44 AUDIO
    TITLE "0:"
    INDEX 01 01:28:29
  TRACK 45 AUDIO
    TITLE "3:cjc151_1350"
    INDEX 01 01:30:11
  TRACK 46 AUDIO
    TITLE "0:"
    INDEX 01 01:34:26
  TRACK 47 AUDIO
    TITLE "2:cjc151_1351"
    INDEX 01 01:36:05
  TRACK 48 AUDIO
    TITLE "0:"
    INDEX 01 01:37:21
  TRACK 49 AUDIO
    TITLE "3:cjc151_1352"
    INDEX 01 01:39:00
  TRACK 50 AUDIO
    TITLE "0:"
    INDEX 01 01:42:43
  TRACK 51 AUDIO
    TITLE "2:cjc151_1353"
    INDEX 01 01:44:23
  TRACK 52 AUDIO
    TITLE "0:"
    INDEX 01 01:45:32
  TRACK 53 AUDIO
    TITLE "3:cjc151_1354"
    INDEX 01 01:47:11
  TRACK 54 AUDIO
    TITLE "0:"
    INDEX 01 01:50:35
  TRACK 55 AUDIO
    TITLE "2:cjc151_1355"
    INDEX 01 01:52:16
  TRACK 56 AUDIO
    TITLE "0:"
    INDEX 01 01:53:21
  TRACK 57 AUDIO
    TITLE "3:cjc151_1356"
    INDEX 01 01:55:01
  TRACK 58 AUDIO
    TITLE "0:"
    INDEX 01 01:58:58
  TRACK 59 AUDIO
    TITLE "2:cjc151_1357"
    INDEX 01 02:00:37
  TRACK 60 AUDIO
    TITLE "0:"
    INDEX 01 02:01:68
  TRACK 61 AUDIO
    TITLE "3:cjc151_1358"
    INDEX 01 02:03:47
  TRACK 62 AUDIO
    TITLE "0:"
    INDEX 01 02:08:00
  TRACK 63 AUDIO
    TITLE "2:cjc151_1359"
    INDEX 01 02:09:54
  TRACK 64 AUDIO
    TITLE "0:"
    INDEX 01 02:10:55
  TRACK 65 AUDIO
    TITLE "3:cjc151_1360"
    INDEX 01 02:12:38
  TRACK 66 AUDIO
    TITLE "0:"
    INDEX 01 02:16:62
  TRACK 67 AUDIO
    TITLE "2:cjc151_1361"
    INDEX 01 02:18:41
  TRACK 68 AUDIO
    TITLE "0:"
    INDEX 01 02:19:42
  TRACK 69 AUDIO
    TITLE "3:cjc151_1362"
    INDEX 01 02:21:24
  TRACK 70 AUDIO
    TITLE "0:"
    INDEX 01 02:24:34
  TRACK 71 AUDIO
    TITLE "2:cjc151_1363"
    INDEX 01 02:26:17
  TRACK 72 AUDIO
    TITLE "0:"
    INDEX 01 02:27:18
  TRACK 73 AUDIO
    TITLE "3:cjc151_1364"
    INDEX 01 02:28:73
  TRACK 74 AUDIO
    TITLE "0:"
    INDEX 01 02:32:12
  TRACK 75 AUDIO
    TITLE "2:cjc151_1365"
    INDEX 01 02:33:66
  TRACK 76 AUDIO
    TITLE "0:"
    INDEX 01 02:35:06
  TRACK 77 AUDIO
    TITLE "3:cjc151_1366"
    INDEX 01 02:36:62
  TRACK 78 AUDIO
    TITLE "0:"
    INDEX 01 02:40:41
  TRACK 79 AUDIO
    TITLE "2:cjc151_1367"
    INDEX 01 02:42:20
  TRACK 80 AUDIO
    TITLE "0:"
    INDEX 01 02:43:37
  TRACK 81 AUDIO
    TITLE "3:cjc151_1368"
    INDEX 01 02:45:18
  TRACK 82 AUDIO
    TITLE "0:"
    INDEX 01 02:49:36
  TRACK 83 AUDIO
    TITLE "2:cjc151_1369"
    INDEX 01 02:51:15
  TRACK 84 AUDIO
    TITLE "0:"
    INDEX 01 02:52:24
  TRACK 85 AUDIO
    TITLE "3:cjc151_1370"
    INDEX 01 02:54:06
  TRACK 86 AUDIO
    TITLE "0:"
    INDEX 01 02:57:41
  TRACK 87 AUDIO
    TITLE "2:cjc151_1371"
    INDEX 01 02:59:20
  TRACK 88 AUDIO
    TITLE "0:"
    INDEX 01 03:00:36
  TRACK 89 AUDIO
    TITLE "3:cjc151_1372"
    INDEX 01 03:02:13
  TRACK 90 AUDIO
    TITLE "0:"
    INDEX 01 03:05:45
